<?xml version="1.0" encoding="UTF-8" standalone="no"?>
<svg
   xmlns:dc="http://purl.org/dc/elements/1.1/"
   xmlns:cc="http://creativecommons.org/ns#"
   xmlns:rdf="http://www.w3.org/1999/02/22-rdf-syntax-ns#"
   xmlns:svg="http://www.w3.org/2000/svg"
   xmlns="http://www.w3.org/2000/svg"
   xmlns:sodipodi="http://sodipodi.sourceforge.net/DTD/sodipodi-0.dtd"
   xmlns:inkscape="http://www.inkscape.org/namespaces/inkscape"
   version="1.1"
   id="Layer_1"
   x="0px"
   y="0px"
   viewBox="0 0 90.1 90"
   style="enable-background:new 0 0 90.1 90;"
   xml:space="preserve"
   sodipodi:docname="near-white.svg"
   inkscape:version="1.0.1 (3bc2e813f5, 2020-09-07)"><metadata
   id="metadata9"><rdf:RDF><cc:Work
       rdf:about=""><dc:format>image/svg+xml</dc:format><dc:type
         rdf:resource="http://purl.org/dc/dcmitype/StillImage" /><dc:title></dc:title></cc:Work></rdf:RDF></metadata><defs
   id="defs7" /><sodipodi:namedview
   pagecolor="#ffffff"
   bordercolor="#666666"
   borderopacity="1"
   objecttolerance="10"
   gridtolerance="10"
   guidetolerance="10"
   inkscape:pageopacity="0"
   inkscape:pageshadow="2"
   inkscape:window-width="1920"
   inkscape:window-height="1000"
   id="namedview5"
   showgrid="false"
   inkscape:zoom="9.0444444"
   inkscape:cx="45.049999"
   inkscape:cy="44.502457"
   inkscape:window-x="-11"
   inkscape:window-y="-11"
   inkscape:window-maximized="1"
   inkscape:current-layer="Layer_1" />
<path
   d="M72.2,4.6L53.4,32.5c-1.3,1.9,1.2,4.2,3,2.6L74.9,19c0.5-0.4,1.2-0.1,1.2,0.6v50.3c0,0.7-0.9,1-1.3,0.5l-56-67  C17,1.2,14.4,0,11.5,0h-2C4.3,0,0,4.3,0,9.6v70.8C0,85.7,4.3,90,9.6,90c3.3,0,6.4-1.7,8.2-4.6l18.8-27.9c1.3-1.9-1.2-4.2-3-2.6  l-18.5,16c-0.5,0.4-1.2,0.1-1.2-0.6V20.1c0-0.7,0.9-1,1.3-0.5l56,67c1.8,2.2,4.5,3.4,7.3,3.4h2c5.3,0,9.6-4.3,9.6-9.6V9.6  c0-5.3-4.3-9.6-9.6-9.6C77.1,0,74,1.7,72.2,4.6z"
   id="path2"
   style="fill:#ffffff" />
</svg>
